<svg width="32" height="32" viewBox="0 0 32 32" fill="none" xmlns="http://www.w3.org/2000/svg">
  <!-- Background circle with gradient -->
  <circle cx="16" cy="16" r="15" fill="url(#gradient)" stroke="url(#borderGradient)" stroke-width="2"/>
  
  <!-- Letter R -->
  <path d="M8 8h6c2.5 0 4.5 2 4.5 4.5 0 1.5-0.7 2.8-1.8 3.6l2.3 4.9h-2.5l-2-4.5h-4.5v4.5H8V8z M10 10v4.5h4c1.4 0 2.5-1.1 2.5-2.5S15.4 10 14 10h-4z" fill="white"/>
  
  <!-- Tech circuit pattern -->
  <circle cx="22" cy="12" r="1.5" fill="white" opacity="0.8"/>
  <circle cx="26" cy="16" r="1" fill="white" opacity="0.6"/>
  <circle cx="24" cy="20" r="1.2" fill="white" opacity="0.7"/>
  <line x1="22" y1="12" x2="24" y2="14" stroke="white" stroke-width="0.8" opacity="0.5"/>
  <line x1="24" y1="14" x2="26" y2="16" stroke="white" stroke-width="0.8" opacity="0.5"/>
  <line x1="26" y1="16" x2="24" y2="20" stroke="white" stroke-width="0.8" opacity="0.5"/>
  
  <!-- Gradients -->
  <defs>
    <linearGradient id="gradient" x1="0%" y1="0%" x2="100%" y2="100%">
      <stop offset="0%" style="stop-color:#3B82F6;stop-opacity:1" />
      <stop offset="50%" style="stop-color:#8B5CF6;stop-opacity:1" />
      <stop offset="100%" style="stop-color:#EC4899;stop-opacity:1" />
    </linearGradient>
    <linearGradient id="borderGradient" x1="0%" y1="0%" x2="100%" y2="100%">
      <stop offset="0%" style="stop-color:#1E40AF;stop-opacity:1" />
      <stop offset="100%" style="stop-color:#7C3AED;stop-opacity:1" />
    </linearGradient>
  </defs>
</svg>